<?xml version="1.0" encoding="utf-8"?>
<!-- Generator: Adobe Illustrator 27.5.0, SVG Export Plug-In . SVG Version: 6.00 Build 0)  -->
<svg version="1.1" xmlns="http://www.w3.org/2000/svg" xmlns:xlink="http://www.w3.org/1999/xlink" x="0px" y="0px"
	 viewBox="0 0 1920 1080" style="enable-background:new 0 0 1920 1080;" xml:space="preserve">
<g id="BACKGROUND">
	<rect x="0.659" style="fill:#FFFFFF;" width="1918.682" height="1079.259"/>
	<linearGradient id="SVGID_1_" gradientUnits="userSpaceOnUse" x1="738.8751" y1="1014.7548" x2="738.8751" y2="-116.8697">
		<stop  offset="0" style="stop-color:#2522F0"/>
		<stop  offset="0.9581" style="stop-color:#04C59A"/>
	</linearGradient>
	<rect x="0.659" style="fill:url(#SVGID_1_);" width="1476.432" height="1079.259"/>
	<g>
		<defs>
			
				<rect id="SVGID_00000003827969874732270730000007174849472109552291_" x="0.659" transform="matrix(-1 -1.224647e-16 1.224647e-16 -1 1477.7501 1079.2588)" width="1476.432" height="1079.259"/>
		</defs>
		<clipPath id="SVGID_00000057147746800785966450000008612239119202858420_">
			<use xlink:href="#SVGID_00000003827969874732270730000007174849472109552291_"  style="overflow:visible;"/>
		</clipPath>
		
			<linearGradient id="SVGID_00000009587751157506678730000008603921800986092940_" gradientUnits="userSpaceOnUse" x1="684.5051" y1="677.8926" x2="684.5051" y2="38.2314" gradientTransform="matrix(0 1 -1 0 1845.2024 -410.9051)">
			<stop  offset="0" style="stop-color:#2522F0"/>
			<stop  offset="0.9581" style="stop-color:#04C59A"/>
		</linearGradient>
		
			<circle style="clip-path:url(#SVGID_00000057147746800785966450000008612239119202858420_);fill:url(#SVGID_00000009587751157506678730000008603921800986092940_);" cx="1516.106" cy="273.6" r="214.446"/>
		
			<linearGradient id="SVGID_00000051381214519289179830000004863172221592043907_" gradientUnits="userSpaceOnUse" x1="911.4315" y1="965.6051" x2="911.4315" y2="396.3449" gradientTransform="matrix(0 -1 1 0 -516.0051 1956.6134)">
			<stop  offset="0" style="stop-color:#2522F0"/>
			<stop  offset="0.9581" style="stop-color:#04C59A"/>
		</linearGradient>
		
			<circle style="clip-path:url(#SVGID_00000057147746800785966450000008612239119202858420_);fill:url(#SVGID_00000051381214519289179830000004863172221592043907_);" cx="139.193" cy="1045.182" r="190.844"/>
		
			<linearGradient id="SVGID_00000052072139524518356230000017558145333969162167_" gradientUnits="userSpaceOnUse" x1="680.2644" y1="1030.9524" x2="776.0294" y2="1030.9524" gradientTransform="matrix(-1 0 0 -1 1791.0743 1180.8846)">
			<stop  offset="0" style="stop-color:#2522F0"/>
			<stop  offset="0.9581" style="stop-color:#04C59A"/>
		</linearGradient>
		
			<circle style="clip-path:url(#SVGID_00000057147746800785966450000008612239119202858420_);fill:url(#SVGID_00000052072139524518356230000017558145333969162167_);" cx="1052.026" cy="149.932" r="22.106"/>
		<g style="clip-path:url(#SVGID_00000057147746800785966450000008612239119202858420_);">
			<g>
				
					<linearGradient id="SVGID_00000155107620903667644530000015465876968805335703_" gradientUnits="userSpaceOnUse" x1="433.7962" y1="413.0025" x2="486.2299" y2="413.0025" gradientTransform="matrix(-1 0 0 -1 1791.0743 1180.8846)">
					<stop  offset="0" style="stop-color:#2522F0"/>
					<stop  offset="0.9581" style="stop-color:#04C59A"/>
				</linearGradient>
				<path style="fill:url(#SVGID_00000155107620903667644530000015465876968805335703_);" d="M1357.278,767.882
					c0,14.457-11.76,26.217-26.217,26.217c-14.457,0-26.217-11.76-26.217-26.217s11.76-26.217,26.217-26.217
					C1345.518,741.665,1357.278,753.425,1357.278,767.882z M1308.633,767.882c0,12.367,10.062,22.429,22.429,22.429
					c12.367,0,22.429-10.062,22.429-22.429s-10.062-22.429-22.429-22.429C1318.695,745.453,1308.633,755.516,1308.633,767.882z"/>
			</g>
			<g>
				
					<linearGradient id="SVGID_00000074412427885973924430000018369569135477113531_" gradientUnits="userSpaceOnUse" x1="411.249" y1="413.0025" x2="508.7734" y2="413.0025" gradientTransform="matrix(-1 0 0 -1 1791.0743 1180.8846)">
					<stop  offset="0" style="stop-color:#2522F0"/>
					<stop  offset="0.9581" style="stop-color:#04C59A"/>
				</linearGradient>
				<path style="fill:url(#SVGID_00000074412427885973924430000018369569135477113531_);" d="M1379.825,767.882
					c0,26.888-21.874,48.762-48.764,48.762c-26.886,0-48.76-21.874-48.76-48.762s21.874-48.762,48.76-48.762
					C1357.952,719.12,1379.825,740.994,1379.825,767.882z M1286.089,767.882c0,24.798,20.176,44.974,44.972,44.974
					c24.8,0,44.976-20.176,44.976-44.974s-20.176-44.974-44.976-44.974C1306.265,722.908,1286.089,743.084,1286.089,767.882z"/>
			</g>
			<g>
				
					<linearGradient id="SVGID_00000163782772844983047860000011012220977310938800_" gradientUnits="userSpaceOnUse" x1="388.7055" y1="413.0016" x2="531.3206" y2="413.0016" gradientTransform="matrix(-1 0 0 -1 1791.0743 1180.8846)">
					<stop  offset="0" style="stop-color:#2522F0"/>
					<stop  offset="0.9581" style="stop-color:#04C59A"/>
				</linearGradient>
				<path style="fill:url(#SVGID_00000163782772844983047860000011012220977310938800_);" d="M1402.369,767.882
					c0,39.32-31.988,71.309-71.307,71.309c-39.32,0-71.308-31.99-71.308-71.309c0-39.32,31.988-71.307,71.308-71.307
					C1370.381,696.575,1402.369,728.562,1402.369,767.882z M1263.542,767.882c0,37.232,30.29,67.521,67.52,67.521
					c37.23,0,67.519-30.29,67.519-67.521c0-37.23-30.29-67.519-67.519-67.519C1293.832,700.363,1263.542,730.653,1263.542,767.882z"
					/>
			</g>
			<g>
				
					<linearGradient id="SVGID_00000029023463796496545850000008745672856631788445_" gradientUnits="userSpaceOnUse" x1="366.1584" y1="413.0025" x2="553.8677" y2="413.0025" gradientTransform="matrix(-1 0 0 -1 1791.0743 1180.8846)">
					<stop  offset="0" style="stop-color:#2522F0"/>
					<stop  offset="0.9581" style="stop-color:#04C59A"/>
				</linearGradient>
				<path style="fill:url(#SVGID_00000029023463796496545850000008745672856631788445_);" d="M1424.916,767.882
					c0,51.751-42.102,93.855-93.855,93.855c-51.753,0-93.855-42.103-93.855-93.855s42.102-93.855,93.855-93.855
					C1382.814,674.028,1424.916,716.131,1424.916,767.882z M1240.995,767.882c0,49.663,40.404,90.067,90.067,90.067
					c49.663,0,90.067-40.404,90.067-90.067c0-49.663-40.404-90.067-90.067-90.067
					C1281.398,677.816,1240.995,718.219,1240.995,767.882z"/>
			</g>
			<g>
				
					<linearGradient id="SVGID_00000015349142492196131560000001932017642048598412_" gradientUnits="userSpaceOnUse" x1="343.6112" y1="413.0025" x2="576.4149" y2="413.0025" gradientTransform="matrix(-1 0 0 -1 1791.0743 1180.8846)">
					<stop  offset="0" style="stop-color:#2522F0"/>
					<stop  offset="0.9581" style="stop-color:#04C59A"/>
				</linearGradient>
				<path style="fill:url(#SVGID_00000015349142492196131560000001932017642048598412_);" d="M1447.463,767.882
					c0,64.183-52.219,116.4-116.402,116.4c-64.183,0-116.402-52.217-116.402-116.4s52.219-116.4,116.402-116.4
					C1395.244,651.482,1447.463,703.7,1447.463,767.882z M1218.448,767.882c0,62.094,50.517,112.612,112.614,112.612
					c62.096,0,112.614-50.517,112.614-112.612s-50.517-112.612-112.614-112.612C1268.965,655.27,1218.448,705.788,1218.448,767.882z
					"/>
			</g>
			<g>
				
					<linearGradient id="SVGID_00000007392479427409013230000005608796334669426859_" gradientUnits="userSpaceOnUse" x1="321.0677" y1="413.0025" x2="598.9584" y2="413.0025" gradientTransform="matrix(-1 0 0 -1 1791.0743 1180.8846)">
					<stop  offset="0" style="stop-color:#2522F0"/>
					<stop  offset="0.9581" style="stop-color:#04C59A"/>
				</linearGradient>
				<path style="fill:url(#SVGID_00000007392479427409013230000005608796334669426859_);" d="M1470.007,767.882
					c0,76.616-62.329,138.947-138.945,138.947c-76.616,0-138.945-62.331-138.945-138.947s62.329-138.947,138.945-138.947
					C1407.677,628.935,1470.007,691.266,1470.007,767.882z M1195.904,767.882c0,74.528,60.631,135.159,135.157,135.159
					c74.526,0,135.157-60.631,135.157-135.159c0-74.528-60.631-135.159-135.157-135.159
					C1256.536,632.723,1195.904,693.354,1195.904,767.882z"/>
			</g>
			<g>
				
					<linearGradient id="SVGID_00000083086627826569171930000014597630122667881897_" gradientUnits="userSpaceOnUse" x1="298.5206" y1="413.0025" x2="621.5055" y2="413.0025" gradientTransform="matrix(-1 0 0 -1 1791.0743 1180.8846)">
					<stop  offset="0" style="stop-color:#2522F0"/>
					<stop  offset="0.9581" style="stop-color:#04C59A"/>
				</linearGradient>
				<path style="fill:url(#SVGID_00000083086627826569171930000014597630122667881897_);" d="M1492.554,767.882
					c0,89.047-72.447,161.492-161.492,161.492s-161.493-72.445-161.493-161.492s72.447-161.492,161.493-161.492
					S1492.554,678.835,1492.554,767.882z M1173.357,767.882c0,86.959,70.745,157.704,157.704,157.704
					s157.704-70.745,157.704-157.704s-70.745-157.704-157.704-157.704S1173.357,680.923,1173.357,767.882z"/>
			</g>
			<g>
				
					<linearGradient id="SVGID_00000079474530329948015330000013091600572038492581_" gradientUnits="userSpaceOnUse" x1="275.9734" y1="413.0026" x2="644.0527" y2="413.0026" gradientTransform="matrix(-1 0 0 -1 1791.0743 1180.8846)">
					<stop  offset="0" style="stop-color:#2522F0"/>
					<stop  offset="0.9581" style="stop-color:#04C59A"/>
				</linearGradient>
				<path style="fill:url(#SVGID_00000079474530329948015330000013091600572038492581_);" d="M1515.101,767.882
					c0,101.479-82.561,184.04-184.04,184.04c-101.479,0-184.04-82.561-184.04-184.04s82.561-184.04,184.04-184.04
					C1432.54,583.843,1515.101,666.403,1515.101,767.882z M1150.81,767.882c0,99.391,80.859,180.252,180.252,180.252
					c99.392,0,180.251-80.861,180.251-180.252s-80.859-180.252-180.251-180.252C1231.669,587.631,1150.81,668.492,1150.81,767.882z"
					/>
			</g>
			<g>
				
					<linearGradient id="SVGID_00000031198015085786740180000008923361569666831254_" gradientUnits="userSpaceOnUse" x1="253.4262" y1="413.0025" x2="666.598" y2="413.0025" gradientTransform="matrix(-1 0 0 -1 1791.0743 1180.8846)">
					<stop  offset="0" style="stop-color:#2522F0"/>
					<stop  offset="0.9581" style="stop-color:#04C59A"/>
				</linearGradient>
				<path style="fill:url(#SVGID_00000031198015085786740180000008923361569666831254_);" d="M1537.648,767.882
					c0,113.912-92.675,206.585-206.587,206.585c-113.912,0-206.585-92.673-206.585-206.585s92.673-206.585,206.585-206.585
					C1444.974,561.297,1537.648,653.97,1537.648,767.882z M1128.265,767.882c0,111.822,90.975,202.797,202.797,202.797
					c111.822,0,202.799-90.975,202.799-202.797s-90.977-202.797-202.799-202.797C1219.239,565.085,1128.265,656.06,1128.265,767.882
					z"/>
			</g>
			<g>
				
					<linearGradient id="SVGID_00000093170199530481239570000010948269459543538084_" gradientUnits="userSpaceOnUse" x1="230.8827" y1="413.0026" x2="689.1433" y2="413.0026" gradientTransform="matrix(-1 0 0 -1 1791.0743 1180.8846)">
					<stop  offset="0" style="stop-color:#2522F0"/>
					<stop  offset="0.9581" style="stop-color:#04C59A"/>
				</linearGradient>
				<path style="fill:url(#SVGID_00000093170199530481239570000010948269459543538084_);" d="M1560.192,767.882
					c0,126.344-102.788,229.132-229.13,229.132s-229.13-102.788-229.13-229.132s102.788-229.132,229.13-229.132
					S1560.192,641.539,1560.192,767.882z M1105.719,767.882c0,124.255,101.087,225.344,225.342,225.344
					s225.342-101.089,225.342-225.344s-101.087-225.344-225.342-225.344S1105.719,643.627,1105.719,767.882z"/>
			</g>
			<g>
				
					<linearGradient id="SVGID_00000019676519660108530530000007192409498710878613_" gradientUnits="userSpaceOnUse" x1="208.3356" y1="413.0025" x2="711.6905" y2="413.0025" gradientTransform="matrix(-1 0 0 -1 1791.0743 1180.8846)">
					<stop  offset="0" style="stop-color:#2522F0"/>
					<stop  offset="0.9581" style="stop-color:#04C59A"/>
				</linearGradient>
				<path style="fill:url(#SVGID_00000019676519660108530530000007192409498710878613_);" d="M1582.739,767.882
					c0,138.775-112.902,251.677-251.677,251.677s-251.677-112.902-251.677-251.677s112.902-251.677,251.677-251.677
					S1582.739,629.107,1582.739,767.882z M1083.172,767.882c0,136.687,111.204,247.889,247.889,247.889
					s247.889-111.203,247.889-247.889s-111.204-247.889-247.889-247.889S1083.172,631.195,1083.172,767.882z"/>
			</g>
			<g>
				
					<linearGradient id="SVGID_00000117661430578615470430000013798831093115746450_" gradientUnits="userSpaceOnUse" x1="185.7884" y1="413.0016" x2="734.2358" y2="413.0016" gradientTransform="matrix(-1 0 0 -1 1791.0743 1180.8846)">
					<stop  offset="0" style="stop-color:#2522F0"/>
					<stop  offset="0.9581" style="stop-color:#04C59A"/>
				</linearGradient>
				<path style="fill:url(#SVGID_00000117661430578615470430000013798831093115746450_);" d="M1605.286,767.882
					c0,151.208-123.016,274.225-274.225,274.225s-274.223-123.016-274.223-274.225c0-151.207,123.014-274.223,274.223-274.223
					S1605.286,616.676,1605.286,767.882z M1060.627,767.882c0,149.118,121.316,270.437,270.435,270.437
					s270.437-121.318,270.437-270.437s-121.318-270.435-270.437-270.435S1060.627,618.764,1060.627,767.882z"/>
			</g>
			<g>
				
					<linearGradient id="SVGID_00000124161865452356640260000006599402744907434385_" gradientUnits="userSpaceOnUse" x1="163.2412" y1="413.0026" x2="756.783" y2="413.0026" gradientTransform="matrix(-1 0 0 -1 1791.0743 1180.8846)">
					<stop  offset="0" style="stop-color:#2522F0"/>
					<stop  offset="0.9581" style="stop-color:#04C59A"/>
				</linearGradient>
				<path style="fill:url(#SVGID_00000124161865452356640260000006599402744907434385_);" d="M1627.833,767.882
					c0,163.64-133.13,296.77-296.772,296.77c-163.638,0-296.77-133.13-296.77-296.77s133.132-296.77,296.77-296.77
					C1494.703,471.112,1627.833,604.242,1627.833,767.882z M1038.079,767.882c0,161.552,131.43,292.982,292.982,292.982
					s292.984-131.43,292.984-292.982S1492.613,474.9,1331.061,474.9S1038.079,606.331,1038.079,767.882z"/>
			</g>
			<g>
				
					<linearGradient id="SVGID_00000171712240657313211500000010985756016591170951_" gradientUnits="userSpaceOnUse" x1="140.6978" y1="413.0025" x2="779.3283" y2="413.0025" gradientTransform="matrix(-1 0 0 -1 1791.0743 1180.8846)">
					<stop  offset="0" style="stop-color:#2522F0"/>
					<stop  offset="0.9581" style="stop-color:#04C59A"/>
				</linearGradient>
				<path style="fill:url(#SVGID_00000171712240657313211500000010985756016591170951_);" d="M1650.377,767.882
					c0,176.071-143.244,319.315-319.315,319.315s-319.315-143.244-319.315-319.315s143.244-319.315,319.315-319.315
					S1650.377,591.811,1650.377,767.882z M1015.534,767.882c0,173.983,141.546,315.527,315.527,315.527
					s315.527-141.544,315.527-315.527s-141.546-315.527-315.527-315.527S1015.534,593.899,1015.534,767.882z"/>
			</g>
			<g>
				
					<linearGradient id="SVGID_00000176759750719107780490000005004180189932624284_" gradientUnits="userSpaceOnUse" x1="118.1506" y1="413.0026" x2="801.8755" y2="413.0026" gradientTransform="matrix(-1 0 0 -1 1791.0743 1180.8846)">
					<stop  offset="0" style="stop-color:#2522F0"/>
					<stop  offset="0.9581" style="stop-color:#04C59A"/>
				</linearGradient>
				<path style="fill:url(#SVGID_00000176759750719107780490000005004180189932624284_);" d="M1672.924,767.882
					c0,188.503-153.358,341.862-341.862,341.862c-188.503,0-341.862-153.36-341.862-341.862s153.36-341.862,341.862-341.862
					C1519.566,426.02,1672.924,579.379,1672.924,767.882z M992.987,767.882c0,186.415,151.66,338.074,338.074,338.074
					s338.074-151.66,338.074-338.074s-151.66-338.074-338.074-338.074S992.987,581.468,992.987,767.882z"/>
			</g>
			<g>
				
					<linearGradient id="SVGID_00000012430896902539308380000002838300938512526499_" gradientUnits="userSpaceOnUse" x1="95.6034" y1="413.0025" x2="824.4208" y2="413.0025" gradientTransform="matrix(-1 0 0 -1 1791.0743 1180.8846)">
					<stop  offset="0" style="stop-color:#2522F0"/>
					<stop  offset="0.9581" style="stop-color:#04C59A"/>
				</linearGradient>
				<path style="fill:url(#SVGID_00000012430896902539308380000002838300938512526499_);" d="M1695.471,767.882
					c0,200.934-163.475,364.408-364.41,364.408S966.654,968.817,966.654,767.882s163.473-364.408,364.408-364.408
					S1695.471,566.948,1695.471,767.882z M970.442,767.882c0,198.846,161.774,360.62,360.62,360.62
					c198.848,0,360.621-161.774,360.621-360.62s-161.774-360.62-360.621-360.62C1132.215,407.263,970.442,569.036,970.442,767.882z"
					/>
			</g>
		</g>
		<g style="clip-path:url(#SVGID_00000057147746800785966450000008612239119202858420_);">
			<g>
				
					<linearGradient id="SVGID_00000091729177843757309330000018174615585010499718_" gradientUnits="userSpaceOnUse" x1="1846.3219" y1="836.1053" x2="1882.2576" y2="836.1053" gradientTransform="matrix(-1 0 0 -1 1791.0743 1180.8846)">
					<stop  offset="0" style="stop-color:#2522F0"/>
					<stop  offset="0.9581" style="stop-color:#04C59A"/>
				</linearGradient>
				<path style="fill:url(#SVGID_00000091729177843757309330000018174615585010499718_);" d="M-73.215,362.747
					c-9.908,0-17.968-8.06-17.968-17.968c0-9.908,8.06-17.968,17.968-17.968c9.908,0,17.968,8.06,17.968,17.968
					C-55.248,354.687-63.307,362.747-73.215,362.747z M-73.215,329.408c-8.476,0-15.372,6.896-15.372,15.372
					c0,8.476,6.896,15.372,15.372,15.372s15.372-6.896,15.372-15.372C-57.844,336.304-64.74,329.408-73.215,329.408z"/>
			</g>
			<g>
				
					<linearGradient id="SVGID_00000145775764765373770270000002743156217773365147_" gradientUnits="userSpaceOnUse" x1="1830.8704" y1="836.1041" x2="1897.7092" y2="836.1041" gradientTransform="matrix(-1 0 0 -1 1791.0743 1180.8846)">
					<stop  offset="0" style="stop-color:#2522F0"/>
					<stop  offset="0.9581" style="stop-color:#04C59A"/>
				</linearGradient>
				<path style="fill:url(#SVGID_00000145775764765373770270000002743156217773365147_);" d="M-73.215,378.2
					c-18.428,0-33.419-14.991-33.419-33.421c0-18.427,14.991-33.418,33.419-33.418s33.419,14.991,33.419,33.418
					C-39.796,363.209-54.787,378.2-73.215,378.2z M-73.215,313.957c-16.995,0-30.823,13.828-30.823,30.822
					c0,16.997,13.828,30.824,30.823,30.824c16.996,0,30.823-13.828,30.823-30.824C-42.392,327.785-56.22,313.957-73.215,313.957z"/>
			</g>
			<g>
				
					<linearGradient id="SVGID_00000109739589103785356060000017725016399449224329_" gradientUnits="userSpaceOnUse" x1="1815.4189" y1="836.1053" x2="1913.162" y2="836.1053" gradientTransform="matrix(-1 0 0 -1 1791.0743 1180.8846)">
					<stop  offset="0" style="stop-color:#2522F0"/>
					<stop  offset="0.9581" style="stop-color:#04C59A"/>
				</linearGradient>
				<path style="fill:url(#SVGID_00000109739589103785356060000017725016399449224329_);" d="M-73.215,393.65
					c-26.948,0-48.872-21.923-48.872-48.871s21.924-48.871,48.872-48.871s48.871,21.923,48.871,48.871S-46.267,393.65-73.215,393.65
					z M-73.215,298.504c-25.517,0-46.276,20.759-46.276,46.275s20.759,46.275,46.276,46.275c25.515,0,46.275-20.759,46.275-46.275
					S-47.7,298.504-73.215,298.504z"/>
			</g>
			<g>
				
					<linearGradient id="SVGID_00000178918681180438498690000018230775532382723489_" gradientUnits="userSpaceOnUse" x1="1799.9659" y1="836.1053" x2="1928.6135" y2="836.1053" gradientTransform="matrix(-1 0 0 -1 1791.0743 1180.8846)">
					<stop  offset="0" style="stop-color:#2522F0"/>
					<stop  offset="0.9581" style="stop-color:#04C59A"/>
				</linearGradient>
				<path style="fill:url(#SVGID_00000178918681180438498690000018230775532382723489_);" d="M-73.215,409.103
					c-35.468,0-64.324-28.855-64.324-64.324s28.856-64.324,64.324-64.324s64.324,28.854,64.324,64.324
					S-37.748,409.103-73.215,409.103z M-73.215,283.052c-34.037,0-61.728,27.691-61.728,61.728
					c0,34.037,27.691,61.728,61.728,61.728c34.037,0,61.728-27.691,61.728-61.728C-11.488,310.743-39.179,283.052-73.215,283.052z"
					/>
			</g>
			<g>
				
					<linearGradient id="SVGID_00000026136385497610623520000015157718910233651380_" gradientUnits="userSpaceOnUse" x1="1784.5145" y1="836.1053" x2="1944.0651" y2="836.1053" gradientTransform="matrix(-1 0 0 -1 1791.0743 1180.8846)">
					<stop  offset="0" style="stop-color:#2522F0"/>
					<stop  offset="0.9581" style="stop-color:#04C59A"/>
				</linearGradient>
				<path style="fill:url(#SVGID_00000026136385497610623520000015157718910233651380_);" d="M-73.215,424.556
					c-43.988,0-79.775-35.789-79.775-79.777s35.787-79.776,79.775-79.776S6.56,300.791,6.56,344.779S-29.228,424.556-73.215,424.556
					z M-73.215,267.599c-42.557,0-77.179,34.622-77.179,77.18s34.622,77.18,77.179,77.18s77.179-34.622,77.179-77.18
					S-30.659,267.599-73.215,267.599z"/>
			</g>
			<g>
				
					<linearGradient id="SVGID_00000004508791421422728920000008611354058295594630_" gradientUnits="userSpaceOnUse" x1="1769.0616" y1="836.1054" x2="1959.5179" y2="836.1054" gradientTransform="matrix(-1 0 0 -1 1791.0743 1180.8846)">
					<stop  offset="0" style="stop-color:#2522F0"/>
					<stop  offset="0.9581" style="stop-color:#04C59A"/>
				</linearGradient>
				<path style="fill:url(#SVGID_00000004508791421422728920000008611354058295594630_);" d="M-73.215,440.006
					c-52.509,0-95.228-42.718-95.228-95.227s42.719-95.227,95.228-95.227s95.228,42.718,95.228,95.227
					S-20.706,440.006-73.215,440.006z M-73.215,252.149c-51.078,0-92.632,41.554-92.632,92.631s41.554,92.631,92.632,92.631
					s92.632-41.554,92.632-92.631S-22.138,252.149-73.215,252.149z"/>
			</g>
			<g>
				
					<linearGradient id="SVGID_00000070798786735798138260000004089828305224599730_" gradientUnits="userSpaceOnUse" x1="1753.6102" y1="836.1053" x2="1974.9694" y2="836.1053" gradientTransform="matrix(-1 0 0 -1 1791.0743 1180.8846)">
					<stop  offset="0" style="stop-color:#2522F0"/>
					<stop  offset="0.9581" style="stop-color:#04C59A"/>
				</linearGradient>
				<path style="fill:url(#SVGID_00000070798786735798138260000004089828305224599730_);" d="M-73.215,455.459
					c-61.029,0-110.68-49.652-110.68-110.68s49.65-110.68,110.68-110.68s110.68,49.652,110.68,110.68
					S-12.186,455.459-73.215,455.459z M-73.215,236.696c-59.598,0-108.084,48.486-108.084,108.083s48.486,108.083,108.084,108.083
					S34.868,404.377,34.868,344.779S-13.618,236.696-73.215,236.696z"/>
			</g>
			<g>
				
					<linearGradient id="SVGID_00000043440684105758871560000010991909109958708664_" gradientUnits="userSpaceOnUse" x1="1738.1573" y1="836.1053" x2="1990.4222" y2="836.1053" gradientTransform="matrix(-1 0 0 -1 1791.0743 1180.8846)">
					<stop  offset="0" style="stop-color:#2522F0"/>
					<stop  offset="0.9581" style="stop-color:#04C59A"/>
				</linearGradient>
				<path style="fill:url(#SVGID_00000043440684105758871560000010991909109958708664_);" d="M-73.215,470.912
					c-69.549,0-126.132-56.583-126.132-126.133c0-69.549,56.583-126.132,126.132-126.132c69.549,0,126.132,56.583,126.132,126.132
					C52.917,414.328-3.666,470.912-73.215,470.912z M-73.215,221.243c-68.118,0-123.536,55.417-123.536,123.536
					s55.418,123.536,123.536,123.536S50.321,412.898,50.321,344.779S-5.097,221.243-73.215,221.243z"/>
			</g>
			<g>
				
					<linearGradient id="SVGID_00000170966681814805957910000009414594188382847146_" gradientUnits="userSpaceOnUse" x1="1722.7058" y1="836.1047" x2="2005.8738" y2="836.1047" gradientTransform="matrix(-1 0 0 -1 1791.0743 1180.8846)">
					<stop  offset="0" style="stop-color:#2522F0"/>
					<stop  offset="0.9581" style="stop-color:#04C59A"/>
				</linearGradient>
				<path style="fill:url(#SVGID_00000170966681814805957910000009414594188382847146_);" d="M-73.215,486.365
					c-78.07,0-141.584-63.515-141.584-141.585s63.514-141.584,141.584-141.584S68.369,266.709,68.369,344.779
					S4.855,486.365-73.215,486.365z M-73.215,205.792c-76.638,0-138.988,62.35-138.988,138.988s62.35,138.989,138.988,138.989
					S65.772,421.417,65.772,344.779S3.422,205.792-73.215,205.792z"/>
			</g>
			<g>
				
					<linearGradient id="SVGID_00000037663514127195869310000001967763113360068782_" gradientUnits="userSpaceOnUse" x1="1707.2531" y1="836.1053" x2="2021.3267" y2="836.1053" gradientTransform="matrix(-1 0 0 -1 1791.0743 1180.8846)">
					<stop  offset="0" style="stop-color:#2522F0"/>
					<stop  offset="0.9581" style="stop-color:#04C59A"/>
				</linearGradient>
				<path style="fill:url(#SVGID_00000037663514127195869310000001967763113360068782_);" d="M-73.215,501.815
					c-86.59,0-157.037-70.447-157.037-157.036s70.447-157.036,157.037-157.036c86.59,0,157.037,70.447,157.037,157.036
					S13.375,501.815-73.215,501.815z M-73.215,190.34c-85.159,0-154.441,69.28-154.441,154.439
					c0,85.159,69.282,154.439,154.441,154.439c85.159,0,154.441-69.28,154.441-154.439C81.225,259.62,11.944,190.34-73.215,190.34z"
					/>
			</g>
			<g>
				
					<linearGradient id="SVGID_00000067923867670479714140000014512262364167542202_" gradientUnits="userSpaceOnUse" x1="1691.8014" y1="836.1053" x2="2036.7781" y2="836.1053" gradientTransform="matrix(-1 0 0 -1 1791.0743 1180.8846)">
					<stop  offset="0" style="stop-color:#2522F0"/>
					<stop  offset="0.9581" style="stop-color:#04C59A"/>
				</linearGradient>
				<path style="fill:url(#SVGID_00000067923867670479714140000014512262364167542202_);" d="M-73.215,517.268
					c-95.11,0-172.488-77.378-172.488-172.488s77.378-172.488,172.488-172.488S99.273,249.669,99.273,344.779
					S21.895,517.268-73.215,517.268z M-73.215,174.887c-93.679,0-169.892,76.214-169.892,169.892s76.213,169.892,169.892,169.892
					S96.677,438.457,96.677,344.779S20.464,174.887-73.215,174.887z"/>
			</g>
			<g>
				
					<linearGradient id="SVGID_00000042006158278672943500000007926206095555964290_" gradientUnits="userSpaceOnUse" x1="1676.3499" y1="836.1047" x2="2052.231" y2="836.1047" gradientTransform="matrix(-1 0 0 -1 1791.0743 1180.8846)">
					<stop  offset="0" style="stop-color:#2522F0"/>
					<stop  offset="0.9581" style="stop-color:#04C59A"/>
				</linearGradient>
				<path style="fill:url(#SVGID_00000042006158278672943500000007926206095555964290_);" d="M-73.215,532.721
					c-103.631,0-187.941-84.31-187.941-187.941c0-103.631,84.31-187.94,187.941-187.94c103.63,0,187.94,84.309,187.94,187.94
					C114.725,448.411,30.415,532.721-73.215,532.721z M-73.215,159.436c-102.199,0-185.345,83.145-185.345,185.344
					s83.146,185.345,185.345,185.345s185.344-83.146,185.344-185.345S28.984,159.436-73.215,159.436z"/>
			</g>
			<g>
				
					<linearGradient id="SVGID_00000161630612661072026470000013452092782356913584_" gradientUnits="userSpaceOnUse" x1="1660.8971" y1="836.1047" x2="2067.6826" y2="836.1047" gradientTransform="matrix(-1 0 0 -1 1791.0743 1180.8846)">
					<stop  offset="0" style="stop-color:#2522F0"/>
					<stop  offset="0.9581" style="stop-color:#04C59A"/>
				</linearGradient>
				<path style="fill:url(#SVGID_00000161630612661072026470000013452092782356913584_);" d="M-73.215,548.173
					c-112.151,0-203.393-91.241-203.393-203.394c0-112.15,91.241-203.393,203.393-203.393s203.393,91.243,203.393,203.393
					C130.177,456.932,38.936,548.173-73.215,548.173z M-73.215,143.983c-110.72,0-200.797,90.076-200.797,200.796
					s90.076,200.798,200.797,200.798S127.581,455.5,127.581,344.779S37.505,143.983-73.215,143.983z"/>
			</g>
			<g>
				
					<linearGradient id="SVGID_00000139294606575746728700000015280939772644357040_" gradientUnits="userSpaceOnUse" x1="1645.4456" y1="836.1053" x2="2083.134" y2="836.1053" gradientTransform="matrix(-1 0 0 -1 1791.0743 1180.8846)">
					<stop  offset="0" style="stop-color:#2522F0"/>
					<stop  offset="0.9581" style="stop-color:#04C59A"/>
				</linearGradient>
				<path style="fill:url(#SVGID_00000139294606575746728700000015280939772644357040_);" d="M-73.215,563.624
					c-120.671,0-218.844-98.173-218.844-218.844c0-120.671,98.173-218.844,218.844-218.844s218.844,98.173,218.844,218.844
					C145.629,465.451,47.456,563.624-73.215,563.624z M-73.215,128.531c-119.24,0-216.248,97.009-216.248,216.248
					s97.008,216.248,216.248,216.248s216.248-97.009,216.248-216.248S46.025,128.531-73.215,128.531z"/>
			</g>
			<g>
				
					<linearGradient id="SVGID_00000160909010983088388200000012171914212711497347_" gradientUnits="userSpaceOnUse" x1="1629.9927" y1="836.1053" x2="2098.5869" y2="836.1053" gradientTransform="matrix(-1 0 0 -1 1791.0743 1180.8846)">
					<stop  offset="0" style="stop-color:#2522F0"/>
					<stop  offset="0.9581" style="stop-color:#04C59A"/>
				</linearGradient>
				<path style="fill:url(#SVGID_00000160909010983088388200000012171914212711497347_);" d="M-73.215,579.076
					c-129.191,0-234.297-105.105-234.297-234.297c0-129.191,105.106-234.297,234.297-234.297s234.297,105.106,234.297,234.297
					C161.082,473.972,55.976,579.076-73.215,579.076z M-73.215,113.078c-127.76,0-231.701,103.941-231.701,231.701
					S-200.975,576.48-73.215,576.48s231.701-103.941,231.701-231.701S54.545,113.078-73.215,113.078z"/>
			</g>
			<g>
				
					<linearGradient id="SVGID_00000170243683348365628470000001770734144907627194_" gradientUnits="userSpaceOnUse" x1="1614.5413" y1="836.1047" x2="2114.0383" y2="836.1047" gradientTransform="matrix(-1 0 0 -1 1791.0743 1180.8846)">
					<stop  offset="0" style="stop-color:#2522F0"/>
					<stop  offset="0.9581" style="stop-color:#04C59A"/>
				</linearGradient>
				<path style="fill:url(#SVGID_00000170243683348365628470000001770734144907627194_);" d="M-73.215,594.529
					c-137.711,0-249.749-112.039-249.749-249.75S-210.927,95.031-73.215,95.031s249.749,112.037,249.749,249.749
					S64.496,594.529-73.215,594.529z M-73.215,97.627c-136.28,0-247.152,110.872-247.152,247.152
					c0,136.281,110.872,247.154,247.152,247.154s247.152-110.872,247.152-247.154C173.937,208.499,63.065,97.627-73.215,97.627z"/>
			</g>
		</g>
		<g style="clip-path:url(#SVGID_00000057147746800785966450000008612239119202858420_);">
			
				<linearGradient id="SVGID_00000113354014615040091640000000565610629775000731_" gradientUnits="userSpaceOnUse" x1="1486.5062" y1="1194.1736" x2="1486.5062" y2="1102.0797" gradientTransform="matrix(0 1 -1 0 1845.2024 -410.9051)">
				<stop  offset="0" style="stop-color:#2522F0"/>
				<stop  offset="0.9581" style="stop-color:#04C59A"/>
			</linearGradient>
			<circle style="fill:url(#SVGID_00000113354014615040091640000000565610629775000731_);" cx="701.246" cy="1075.601" r="30.874"/>
			<g>
				
					<linearGradient id="SVGID_00000039825843872686199710000006235363486085155209_" gradientUnits="userSpaceOnUse" x1="1072.8774" y1="-57.3927" x2="1072.8774" y2="263.3759" gradientTransform="matrix(-1 0 0 -1 1791.0743 1180.8846)">
					<stop  offset="0" style="stop-color:#2522F0"/>
					<stop  offset="0.9581" style="stop-color:#04C59A"/>
				</linearGradient>
				<path style="fill:url(#SVGID_00000039825843872686199710000006235363486085155209_);" d="M718.197,1127.63
					c-64.183,0-116.4-52.219-116.4-116.402s52.217-116.402,116.4-116.402c64.183,0,116.4,52.219,116.4,116.402
					S782.38,1127.63,718.197,1127.63z M718.197,898.614c-62.095,0-112.612,50.518-112.612,112.614s50.517,112.614,112.612,112.614
					c62.094,0,112.612-50.518,112.612-112.614S780.291,898.614,718.197,898.614z"/>
			</g>
		</g>
		<g style="clip-path:url(#SVGID_00000057147746800785966450000008612239119202858420_);">
			
				<linearGradient id="SVGID_00000121971218959247341670000004518896325392843705_" gradientUnits="userSpaceOnUse" x1="646.8262" y1="1049.056" x2="646.8262" y2="1273.8224" gradientTransform="matrix(-1 0 0 -1 1791.0743 1180.8846)">
				<stop  offset="0" style="stop-color:#2522F0"/>
				<stop  offset="0.9581" style="stop-color:#04C59A"/>
			</linearGradient>
			<path style="fill:url(#SVGID_00000121971218959247341670000004518896325392843705_);" d="M1144.248,54.297
				c-44.974,0-81.563-36.591-81.563-81.564c0-44.974,36.589-81.564,81.563-81.564c44.974,0,81.563,36.591,81.563,81.564
				C1225.811,17.706,1189.222,54.297,1144.248,54.297z M1144.248-106.177c-43.51,0-78.908,35.398-78.908,78.91
				s35.398,78.91,78.908,78.91c43.51,0,78.909-35.398,78.909-78.91S1187.758-106.177,1144.248-106.177z"/>
		</g>
	</g>
</g>
<g id="PHOTOS">
	<g>
		<defs>
			<rect id="SVGID_00000173866200287549072940000016597001790510554047_" y="0.912" width="1920" height="1078.395"/>
		</defs>
		<clipPath id="SVGID_00000171705459217832640690000001431241253751599512_">
			<use xlink:href="#SVGID_00000173866200287549072940000016597001790510554047_"  style="overflow:visible;"/>
		</clipPath>
		
			<rect x="1556.265" y="-58.031" style="clip-path:url(#SVGID_00000171705459217832640690000001431241253751599512_);fill:#FFFFFF;" width="399.38" height="1171.752"/>
		<g style="clip-path:url(#SVGID_00000171705459217832640690000001431241253751599512_);">
			<defs>
				<path id="SVGID_00000050659696994803054970000009791160249687025281_" d="M1828.13-11.61H1343.25v505.225
					c-0.146,0.107-0.306,0.206-0.445,0.316c-13.456-2.883-18.582,13.456-18.582,13.456s-3.844,1.922-19.863,13.456
					c-16.019,11.534-19.543,27.873-19.543,27.873s-12.495,17.3-17.941,25.63c-5.447,8.33-18.262,41.649-21.465,52.862
					c-14.737,14.417-16.339,25.63-15.058,37.484c-2.563,2.883-12.412,24.843-12.412,24.843c-0.507,0.251-9.326,12.425-13.265,19.974
					c-3.98,7.629-15.876,14.165-17.534,19.14c-1.658,4.975-4.643,17.247-4.975,20.564c-0.332,3.317-6.634,15.257-9.95,27.529
					c-3.317,12.272-5.638,30.182-4.643,36.816c0.995,6.634-1.327,16.584-2.322,21.227c-0.995,4.643,0,15.257,0,15.257
					s-1.529,6.175-1.86,7.501c-0.332,1.327,0.534,6.429,1.529,8.751c0.995,2.322,6.633,21.227,12.604,29.187
					c5.196,6.928,14.419,8.276,40.417,20.2c0,0,39.324,17.486,45.091,21.651c5.767,4.165,21.786,6.408,21.786,6.408l-2.883,22.106
					c0,0-3.524,5.767-5.126,9.611c-1.602,3.845-4.165,27.232-4.485,38.125c-0.32,10.893-0.641,16.019-0.641,16.019
					s-2.243,9.932-3.524,28.834c-2.243,8.33-4.806,30.756-4.806,30.756l109.889,15.698l-0.316-16.926h455.206V-11.61z"/>
			</defs>
			<use xlink:href="#SVGID_00000050659696994803054970000009791160249687025281_"  style="overflow:visible;fill:#606060;"/>
			<clipPath id="SVGID_00000138542820933452363410000005113687074032634262_">
				<use xlink:href="#SVGID_00000050659696994803054970000009791160249687025281_"  style="overflow:visible;"/>
			</clipPath>
		</g>
	</g>
</g>
<g id="OBJECTS">
	<g>
		<g>
			<g>
				<path style="fill:#090B32;" d="M1891.38,899.14c-2.356,0.109-2.304,0.1-2.571,0.122l1.396-3.984c0,0-4.356,1.602-5.46,1.889
					c-2.9-2.607-7.211-2.722-10.293-0.828c-2.524,1.552-3.878,4.216-3.427,7.33c-4.912-0.681-9.05-3.01-12.318-6.935l-1.033-1.241
					l-0.772,1.418c-0.976,1.791-1.3,3.841-0.913,5.769c0.159,0.791,0.429,1.545,0.802,2.252l-0.886-0.344l-0.106,1.481
					c-0.106,1.505,0.395,3.261,1.341,4.698c0.267,0.405,0.61,0.85,1.044,1.287l-0.458-0.07l0.559,1.697
					c0.735,2.23,2.261,3.955,4.242,4.914c-1.979,0.839-3.576,1.375-6.203,2.239l-2.403,0.79l2.22,1.213
					c0.846,0.462,3.836,2.008,6.79,2.471c6.568,1.03,13.962,0.191,18.939-4.292c4.193-3.776,5.569-9.147,5.283-14.736
					c-0.043-0.846,0.188-1.654,0.653-2.274C1888.736,902.765,1891.374,899.148,1891.38,899.14L1891.38,899.14z M1886.052,902.692"/>
				<g>
					<path style="fill:#090B32;" d="M1876.185,1008.193h-12.144c-5.588,0-10.12,4.532-10.12,10.12v12.144
						c0,5.588,4.532,10.12,10.12,10.12h12.144c5.588,0,10.119-4.532,10.119-10.12v-12.144
						C1886.305,1012.725,1881.773,1008.193,1876.185,1008.193z M1883.269,1030.457c0,3.906-3.177,7.084-7.084,7.084h-12.144
						c-3.906,0-7.084-3.177-7.084-7.084v-12.144c0-3.906,3.178-7.085,7.084-7.085h12.144c3.906,0,7.084,3.179,7.084,7.085V1030.457z
						"/>
					<path style="fill:#090B32;" d="M1870.113,1016.289c-4.472,0-8.096,3.626-8.096,8.096c0,4.471,3.624,8.096,8.096,8.096
						c4.471,0,8.096-3.625,8.096-8.096C1878.21,1019.914,1874.584,1016.289,1870.113,1016.289z M1870.113,1029.445
						c-2.79,0-5.06-2.271-5.06-5.06c0-2.791,2.271-5.06,5.06-5.06c2.789,0,5.059,2.269,5.059,5.06
						C1875.173,1027.174,1872.902,1029.445,1870.113,1029.445z"/>
					<path style="fill:#090B32;" d="M1878.817,1014.603c0.596,0,1.079,0.483,1.079,1.078c0,0.596-0.483,1.079-1.079,1.079
						c-0.597,0-1.079-0.483-1.079-1.079C1877.737,1015.086,1878.22,1014.603,1878.817,1014.603z"/>
				</g>
				<g>
					<path style="fill:#090B32;" d="M1883.265,786.583c0-2.57-2.32-4.891-4.89-4.891h-19.563c-2.571,0-4.89,2.321-4.89,4.891v19.562
						c0,2.57,2.32,4.89,4.89,4.89h9.781v-11.085h-3.587v-4.89h3.587v-1.906c0-3.286,2.467-6.246,5.502-6.246h3.953v4.891h-3.953
						c-0.433,0-0.937,0.525-0.937,1.312v1.949h4.89v4.89h-4.89v11.085h5.217c2.571,0,4.89-2.32,4.89-4.89V786.583z
						 M1883.265,786.583"/>
				</g>
			</g>
		</g>
		<g>
			
				<line style="fill:none;stroke:#090B32;stroke-width:2.3345;stroke-miterlimit:10;" x1="1889.837" y1="38.805" x2="1844.509" y2="38.805"/>
			
				<line style="fill:none;stroke:#090B32;stroke-width:2.3345;stroke-miterlimit:10;" x1="1889.837" y1="54.871" x2="1844.509" y2="54.871"/>
			
				<line style="fill:none;stroke:#090B32;stroke-width:2.3345;stroke-miterlimit:10;" x1="1889.837" y1="70.937" x2="1844.509" y2="70.937"/>
		</g>
	</g>
	<rect x="115.686" y="844.863" style="fill:#090B32;" width="456.473" height="98.682"/>
</g>
<g id="TEXTS">
	<g>
		<g>
			
				<text transform="matrix(1 0 0 1 420.7505 88.8701)" style="fill:#090B32; font-family:'GeoramaRoman-Bold'; font-size:22.3805px; letter-spacing:8;">HOME</text>
			<g>
				
					<text transform="matrix(1 0 0 1 1060.3506 88.8701)" style="fill:#FFFFFF; font-family:'GeoramaRoman-Bold'; font-size:22.3805px; letter-spacing:8;">CONTACT US</text>
			</g>
			<g>
				
					<text transform="matrix(1 0 0 1 602.0298 88.8701)" style="fill:#FFFFFF; font-family:'GeoramaRoman-Bold'; font-size:22.3805px; letter-spacing:8;">ABOUT US</text>
			</g>
			<g>
				
					<text transform="matrix(1 0 0 1 844.8696 88.8701)" style="fill:#FFFFFF; font-family:'GeoramaRoman-Bold'; font-size:22.3805px; letter-spacing:8;">GALLERY</text>
			</g>
		</g>
		<g>
			
				<text transform="matrix(1 0 0 1 83.584 94.5234)" style="fill:#FFFFFF; font-family:'GeoramaRoman-Bold'; font-size:56.4071px; letter-spacing:9;">HEALTH</text>
			<g>
				
					<text transform="matrix(1 0 0 1 75.8188 118.9102)" style="fill:#FFFFFF; font-family:'GeoramaRoman-Light'; font-size:20.5148px; letter-spacing:7;">MEDICAL CENTER</text>
			</g>
		</g>
	</g>
	<g>
		<g>
			
				<text transform="matrix(1 0 0 1 111.1016 344.3018)" style="fill:#FFFFFF; font-family:'GeoramaRoman-Light'; font-size:47.7926px; letter-spacing:25;">YOUR HEALTHY</text>
			
				<text transform="matrix(1 0 0 1 111.1016 444.0596)" style="fill:#FFFFFF; font-family:'GeoramaRoman-ExtraBold'; font-size:89.4704px; letter-spacing:26;">OUR PRIORITY</text>
		</g>
		<rect x="115.454" y="560.788" style="fill:none;" width="611.876" height="170.1"/>
		<text transform="matrix(1 0 0 1 115.4531 579.8408)"><tspan x="0" y="0" style="fill:#FFFFFF; font-family:'Montserrat-Light'; font-size:25.6761px; letter-spacing:1;">Lorem ipsum dolor sit amet, consectetuer </tspan><tspan x="0" y="36.517" style="fill:#FFFFFF; font-family:'Montserrat-Light'; font-size:25.6761px; letter-spacing:1;">adipiscing elit, sed diam nonummy nibh </tspan><tspan x="0" y="73.034" style="fill:#FFFFFF; font-family:'Montserrat-Light'; font-size:25.6761px; letter-spacing:1;">euismod tincidunt ut laoreet dolore </tspan><tspan x="0" y="109.551" style="fill:#FFFFFF; font-family:'Montserrat-Light'; font-size:25.6761px; letter-spacing:1;">magna aliquam erat volutpat. Ut wisi enim </tspan><tspan x="0" y="146.068" style="fill:#FFFFFF; font-family:'Montserrat-Light'; font-size:25.6761px; letter-spacing:1;">ad minim veniam, quis nostrud </tspan></text>
		<g>
			<g>
				
					<text transform="matrix(1 0 0 1 198.5142 904.0195)" style="fill:#FFFFFF; font-family:'GeoramaRoman-Bold'; font-size:27.2225px; letter-spacing:14;">LEARN MORE</text>
			</g>
		</g>
	</g>
</g>
</svg>
